:FULLY-SPECIFIED
:FORCE-ALL-JOINTS-BE-3DOF
:DEGREES
510
root -5.10202 15.0366 -42.5504 366.231 -0.389147 345.624
lfemur -59.5614 38.3855 -14.8176
ltibia 73.078 -0 0
lfoot -20.2753 23.2365 -0.415833
ltoes 15.1024 -0 0
rfemur -16.7183 -16.0824 6.7447
rtibia 55.6716 -0 0
rfoot 8.31873 -17.5322 -0.535846
rtoes -1.90672 0 0
lowerback 15.5077 1.29822 -4.48239
upperback -1.3764 1.23165 3.4034
thorax -10.4396 0.965293 5.99076
lowerneck 4.04658 -15.2619 -16.9138
upperneck 4.45159 -22.283 19.8292
head 4.85479 -11.2052 7.39276
lclavicle 2.38542e-15 9.54166e-15 0
lhumerus 19.3441 -73.7217 76.807
lradius 79.779 0 0
lwrist 16.2469 0 0
lhand -3.90798 37.2091 0
lfingers 7.12502 0 0
lthumb 21.8423 65.9964 0
rclavicle 2.38542e-15 9.54166e-15 0
rhumerus 83.3842 34.6424 -11.6979
rradius 110.227 0 0
rwrist -22.2269 0 0
rhand -9.27785 -25.1467 0
rfingers 7.12502 0 0
rthumb 16.679 -54.4502 0
511
root -5.19425 15.0364 -42.6301 366.197 -2.86245 345.908
lfemur -60.1997 39.1906 -14.3214
ltibia 73.0788 0 0
lfoot -19.7825 22.7731 -0.397885
ltoes 13.5936 -0 0
rfemur -18.1016 -16.3949 6.71433
rtibia 54.2975 -0 0
rfoot 7.81821 -16.368 -0.644605
rtoes -2.18206 0 0
lowerback 15.7849 1.38378 -4.65852
upperback -1.35258 1.29196 3.31163
thorax -10.5842 1.00449 5.97737
lowerneck 3.62346 -14.8781 -16.9079
upperneck 4.71013 -21.6766 19.2974
head 4.82227 -10.8852 7.27883
lclavicle 8.74653e-15 -1.90833e-14 0
lhumerus 13.3884 -73.0365 81.5926
lradius 80.6745 0 0
lwrist 14.2513 0 0
lhand -4.58816 37.9524 0
lfingers 7.12502 0 0
lthumb 21.1891 66.8144 0
rclavicle 8.74653e-15 -1.90833e-14 0
rhumerus 83.2448 35.5863 -11.4414
rradius 111.43 0 0
rwrist -21.6508 0 0
rhand -10.2814 -25.7282 0
rfingers 7.12502 0 0
rthumb 15.7126 -55.1103 0
512
root -5.28031 15.026 -42.7058 366.203 -5.37375 346.2
lfemur -57.2043 38.4782 -13.302
ltibia 72.3124 -0 0
lfoot -19.2899 22.31 -0.375953
ltoes 12.0848 -0 0
rfemur -19.4869 -16.7079 6.69179
rtibia 52.9234 0 0
rfoot 7.31557 -15.203 -0.743169
rtoes -2.45741 0 0
lowerback 16.0591 1.35909 -4.94483
upperback -1.45244 1.19516 3.33732
thorax -10.8503 0.987904 6.20118
lowerneck 3.45964 -14.2981 -17.0473
upperneck 4.87511 -20.8215 18.7612
head 4.69201 -10.4634 7.24165
lclavicle 1.19271e-15 -2.06736e-14 0
lhumerus 6.47275 -71.8747 87.0602
lradius 81.8909 0 0
lwrist 12.4266 0 0
lhand -5.62379 38.138 0
lfingers 7.12502 0 0
lthumb 20.194 67.1083 0
rclavicle 1.19271e-15 -2.06736e-14 0
rhumerus 83.1298 37.0775 -11.213
rradius 113.098 0 0
rwrist -20.8437 0 0
rhand -10.0387 -27.8129 0
rfingers 7.12502 0 0
rthumb 15.9464 -57.1765 0
513
root -5.35517 15.0095 -42.7729 366.165 -8.05792 346.579
lfemur -54.2552 37.7256 -12.3412
ltibia 71.546 -0 0
lfoot -18.7975 21.847 -0.350041
ltoes 10.576 -0 0
rfemur -20.8745 -17.0214 6.67713
rtibia 53.5099 -0 0
rfoot 6.81102 -14.0371 -0.83149
rtoes -2.73275 0 0
lowerback 16.3042 1.33078 -5.25953
upperback -1.52314 1.08434 3.34054
thorax -11.0643 0.964142 6.42056
lowerneck 3.19546 -13.7049 -17.014
upperneck 5.0953 -19.9217 18.0706
head 4.5561 -10.0131 7.12486
lclavicle -9.93923e-15 1.27222e-14 0
lhumerus -0.793856 -70.2547 92.6256
lradius 83.3876 0 0
lwrist 10.7218 0 0
lhand -5.48683 38.0399 0
lfingers 7.12502 0 0
lthumb 20.3256 66.9963 0
rclavicle -9.93923e-15 1.27222e-14 0
rhumerus 82.4248 38.8468 -11.3193
rradius 114.959 0 0
rwrist -19.3385 0 0
rhand -8.61211 -28.6541 0
rfingers 7.12502 0 0
rthumb 17.3198 -57.9023 0
514
root -5.42609 14.9983 -42.8445 366.215 -10.7374 346.962
lfemur -51.3524 36.9354 -11.4399
ltibia 70.7796 -0 0
lfoot -18.3054 21.3843 -0.320152
ltoes 9.06724 -0 0
rfemur -22.2643 -17.3351 6.67041
rtibia 54.0963 -0 0
rfoot 6.30477 -12.8704 -0.909523
rtoes -3.00809 0 0
lowerback 16.5944 1.19192 -5.7716
upperback -1.74182 0.792378 3.44599
thorax -11.4497 0.884557 6.92437
lowerneck 3.29212 -12.9447 -16.9808
upperneck 5.27516 -18.8312 17.3052
head 4.31436 -9.49026 7.0321
lclavicle -2.16675e-14 5.88403e-14 0
lhumerus -8.85229 -67.8137 98.6827
lradius 85.1264 0 0
lwrist 9.39514 0 0
lhand -6.09735 38.0355 0
lfingers 7.12502 0 0
lthumb 19.7388 67.0533 0
rclavicle -2.16675e-14 5.88403e-14 0
rhumerus 81.3543 41.1645 -11.5679
rradius 117.212 0 0
rwrist -17.3069 0 0
rhand -6.27625 -28.0853 0
rfingers 7.12502 0 0
rthumb 19.5668 -57.1207 0
515
root -5.47907 14.9983 -42.8936 366.113 -13.7357 347.368
lfemur -48.4956 36.1102 -10.5986
ltibia 70.0133 -0 0
lfoot -17.8134 20.9219 -0.28629
ltoes 7.55846 -0 0
rfemur -23.6564 -17.6489 6.67167
rtibia 54.6828 -0 0
rfoot 5.79702 -11.7031 -0.977231
rtoes -3.28344 0 0
lowerback 16.8515 0.99102 -6.35541
upperback -1.94281 0.408355 3.63152
thorax -11.7776 0.771397 7.59144
lowerneck 3.21698 -12.0248 -16.9869
upperneck 5.79366 -17.5198 16.3117
head 4.15619 -8.85127 6.86891
lclavicle -1.33186e-14 -1.43125e-14 0
lhumerus -16.2354 -64.3308 103.805
lradius 87.0741 0 0
lwrist 8.68499 0 0
lhand -5.3116 37.351 0
lfingers 7.12502 0 0
lthumb 20.494 66.2894 0
rclavicle -1.33186e-14 -1.43125e-14 0
rhumerus 79.7606 43.9426 -12.0609
rradius 119.74 0 0
rwrist -15.4647 0 0
rhand -2.70193 -26.5913 0
rfingers 7.12502 0 0
rthumb 23 -55.2391 0
516
root -5.52744 14.9925 -42.9386 365.969 -17.002 347.851
lfemur -45.6838 35.2525 -9.8176
ltibia 69.2469 -0 0
lfoot -17.3218 20.4597 -0.248461
ltoes 6.04968 -0 0
rfemur -25.051 -17.9626 6.68094
rtibia 55.2692 -0 0
rfoot 5.28799 -10.5352 -1.03458
rtoes -3.55878 0 0
lowerback 17.0552 1.1251 -6.07832
upperback -2.96802 0.566213 3.08526
thorax -13.0954 0.891584 6.79427
lowerneck 7.75129 -10.8352 -17.2266
upperneck 4.76131 -16.4932 16.7762
head 2.98587 -8.56608 7.50285
lclavicle -8.24956e-14 1.59028e-15 0
lhumerus -28.0059 -61.3036 112.243
lradius 89.4163 0 0
lwrist 8.4263 0 0
lhand -6.22786 37.1829 0
lfingers 7.12502 0 0
lthumb 19.6133 66.2135 0
rclavicle -8.24956e-14 1.59028e-15 0
rhumerus 74.1852 48.4157 -15.4341
rradius 122.381 0 0
rwrist -13.0389 0 0
rhand 1.1931 -25.1533 0
rfingers 7.12502 0 0
rthumb 26.7326 -53.2848 0
517
root -5.56438 14.9838 -42.9696 365.739 -20.4158 348.512
lfemur -42.9161 34.365 -9.09667
ltibia 68.4805 -0 0
lfoot -16.8305 19.998 -0.206669
ltoes 4.5409 -0 0
rfemur -26.4482 -18.276 6.69826
rtibia 55.8557 -0 0
rfoot 4.77788 -9.36675 -1.08154
rtoes -3.83413 0 0
lowerback 17.1628 1.81538 -6.3374
upperback -2.07701 1.37001 2.54761
thorax -12.2522 1.19568 6.0889
lowerneck 3.57302 -11.4823 -14.553
upperneck 5.85213 -16.7271 15.556
head 3.70247 -8.44405 6.39662
lclavicle -6.42074e-14 -2.70347e-14 0
lhumerus -30.3802 -60.4891 112.545
lradius 91.636 0 0
lwrist 10.8428 0 0
lhand -5.0416 36.3638 0
lfingers 7.12502 0 0
lthumb 20.7534 65.274 0
rclavicle -6.42074e-14 -2.70347e-14 0
rhumerus 67.402 48.3425 -19.2301
rradius 125.06 0 0
rwrist -11.9675 0 0
rhand 4.87946 -24.3145 0
rfingers 7.12502 0 0
rthumb 30.255 -51.8553 0
518
root -5.59782 14.9789 -42.9855 365.292 -24.1187 349.333
lfemur -40.191 33.4502 -8.4355
ltibia 67.7141 -0 0
lfoot -16.3395 19.5365 -0.160921
ltoes 3.03212 -0 0
rfemur -27.848 -18.5888 6.72367
rtibia 56.4421 -0 0
rfoot 4.26692 -8.19797 -1.11809
rtoes -4.10947 0 0
lowerback 17.3587 1.0274 -7.31868
upperback -1.66392 0.152858 3.03444
thorax -11.7129 0.675143 7.54645
lowerneck 1.03154 -10.1014 -15.85
upperneck 7.40685 -14.5961 14.7127
head 4.29006 -7.3161 6.35424
lclavicle -8.47817e-14 -1.27222e-14 0
lhumerus -32.9529 -53.4648 112.379
lradius 93.8149 0 0
lwrist 13.6029 0 0
lhand -3.07398 35.8185 0
lfingers 7.12502 0 0
lthumb 22.643 64.5103 0
rclavicle -8.47817e-14 -1.27222e-14 0
rhumerus 65.611 50.3408 -20.7516
rradius 126.459 0 0
rwrist -14.9256 0 0
rhand 11.6749 -16.8644 0
rfingers 7.12502 0 0
rthumb 36.7132 -43.0024 0
519
root -5.61849 14.9659 -42.9805 364.748 -27.6947 350.258
lfemur -37.5072 32.5105 -7.83355
ltibia 66.9477 -0 0
lfoot -15.849 19.0755 -0.111222
ltoes 1.52334 -0 0
rfemur -29.2505 -18.901 6.7572
rtibia 57.0286 -0 0
rfoot 3.75531 -7.02889 -1.14421
rtoes -4.38481 0 0
lowerback 17.5492 1.02771 -7.62181
upperback -1.61549 0.0424008 2.75606
thorax -11.7485 0.630808 7.43895
lowerneck 0.568364 -9.45193 -15.5858
upperneck 8.0301 -13.6658 14.2464
head 4.35488 -6.84418 6.2268
lclavicle -2.68359e-14 -3.10104e-14 0
lhumerus -37.9675 -48.6649 114.341
lradius 95.9399 0 0
lwrist 17.6497 0 0
lhand 0.944823 35.4292 0
lfingers 7.12502 0 0
lthumb 26.495 63.5968 0
rclavicle -2.68359e-14 -3.10104e-14 0
rhumerus 57.9775 51.8591 -25.7756
rradius 128.114 0 0
rwrist -18.1507 0 0
rhand 16.577 -14.9635 0
rfingers 7.12502 0 0
rthumb 41.3339 -39.7728 0
520
root -5.63871 14.9465 -42.9642 364.179 -31.2884 351.047
lfemur -34.8627 31.5483 -7.2901
ltibia 66.1813 -0 0
lfoot -15.3588 18.615 -0.0575789
ltoes 0.01456 -0 0
rfemur -30.6559 -19.2123 6.79887
rtibia 57.615 -0 0
rfoot 3.24327 -5.85962 -1.15989
rtoes -4.66016 0 0
lowerback 17.6574 1.0396 -7.70161
upperback -1.4782 0.00630625 2.51075
thorax -11.6462 0.597686 7.21459
lowerneck 0.111168 -8.95067 -15.6426
upperneck 8.66333 -12.964 14.0738
head 4.50486 -6.48811 6.21997
lclavicle 2.5345e-15 -7.95139e-15 0
lhumerus -42.366 -43.9288 115.74
lradius 97.8717 0 0
lwrist 24.4434 0 0
lhand 0.215807 36.5011 0
lfingers 7.12502 0 0
lthumb 25.7971 64.772 0
rclavicle 2.5345e-15 -7.95139e-15 0
rhumerus 48.8097 52.3097 -31.8047
rradius 129.118 0 0
rwrist -22.5 0 0
rhand 22.7121 -12.2206 0
rfingers 7.12502 0 0
rthumb 47.0527 -34.8636 0
521
root -5.66061 14.9285 -42.9283 363.49 -34.9008 351.886
lfemur -32.2559 30.566 -6.80429
ltibia 65.4149 -0 0
lfoot -14.8691 18.1549 0
ltoes -1.49422 0 0
rfemur -32.0642 -19.5226 6.84871
rtibia 58.2015 -0 0
rfoot 2.73102 -4.69025 -1.16511
rtoes -4.9355 0 0
lowerback 17.7347 1.28883 -7.55443
upperback -1.27775 0.322119 2.11419
thorax -11.5132 0.705614 6.58918
lowerneck -0.28514 -8.93848 -15.6153
upperneck 9.29227 -12.955 14.0029
head 4.75326 -6.47002 6.17033
lclavicle -1.51076e-14 -4.21423e-14 0
lhumerus -46.2575 -40.0494 116.637
lradius 99.3625 0 0
lwrist 31.9423 0 0
lhand 1.21835 38.8434 0
lfingers 7.12502 0 0
lthumb 26.7568 66.9713 0
rclavicle -1.51076e-14 -4.21423e-14 0
rhumerus 37.7441 51.0712 -38.7186
rradius 129.465 0 0
rwrist -26.9523 0 0
rhand 27.7727 -12.588 0
rfingers 7.12502 0 0
rthumb 51.6938 -32.8737 0
